<?xml version="1.0" encoding="utf-8"?>
<svg viewBox="0 0 500 500" xmlns="http://www.w3.org/2000/svg" xmlns:xlink="http://www.w3.org/1999/xlink" xmlns:bx="https://boxy-svg.com">
  <defs>
    <linearGradient id="gradient-0-12" gradientUnits="userSpaceOnUse" x1="3" y1="28" x2="3" y2="32" xlink:href="#gradient-0"/>
    <linearGradient id="gradient-0" bx:pinned="true">
      <stop offset="0.097" style="stop-color: rgb(255, 219, 110);"/>
      <stop offset="0.898" style="stop-color: rgb(255, 188, 94);"/>
    </linearGradient>
    <linearGradient id="gradient-0-13" gradientUnits="userSpaceOnUse" x1="4" y1="10" x2="4" y2="14" xlink:href="#gradient-0"/>
    <linearGradient id="gradient-0-11" gradientUnits="userSpaceOnUse" x1="4" y1="46" x2="4" y2="50" xlink:href="#gradient-0"/>
    <linearGradient id="gradient-0-9" gradientUnits="userSpaceOnUse" x1="30" y1="55" x2="30" y2="59" xlink:href="#gradient-0"/>
    <linearGradient id="gradient-0-10" gradientUnits="userSpaceOnUse" x1="12" y1="54" x2="12" y2="58" xlink:href="#gradient-0"/>
    <linearGradient id="gradient-0-8" gradientUnits="userSpaceOnUse" x1="48" y1="54" x2="48" y2="58" xlink:href="#gradient-0"/>
    <linearGradient id="gradient-0-6" gradientUnits="userSpaceOnUse" x1="57" y1="28" x2="57" y2="32" xlink:href="#gradient-0"/>
    <linearGradient id="gradient-0-7" gradientUnits="userSpaceOnUse" x1="56" y1="46" x2="56" y2="50" xlink:href="#gradient-0"/>
    <linearGradient id="gradient-0-5" gradientUnits="userSpaceOnUse" x1="55.955" y1="10.001" x2="55.955" y2="14.001" xlink:href="#gradient-0"/>
    <linearGradient id="gradient-0-3" gradientUnits="userSpaceOnUse" x1="30" y1="1" x2="30" y2="5" xlink:href="#gradient-0"/>
    <linearGradient id="gradient-0-4" gradientUnits="userSpaceOnUse" x1="48" y1="2" x2="48" y2="6" xlink:href="#gradient-0"/>
    <linearGradient id="gradient-0-2" gradientUnits="userSpaceOnUse" x1="12" y1="2" x2="12" y2="6" xlink:href="#gradient-0"/>
    <linearGradient id="gradient-0-0" gradientUnits="userSpaceOnUse" x1="30" y1="13" x2="30" y2="47" xlink:href="#gradient-0"/>
    <linearGradient id="gradient-0-1" gradientUnits="userSpaceOnUse" x1="30" y1="0" x2="30" y2="60" xlink:href="#gradient-0"/>
    <linearGradient id="gradient-0-14" gradientUnits="userSpaceOnUse" x1="29" y1="21" x2="29" y2="39.001" xlink:href="#gradient-0"/>
  </defs>
  <g transform="matrix(8.333333015441895, 0, 0, 8.333333015441895, 0, 0)">
    <g fill="#22eaff">
      <circle cx="3" cy="30" r="2" data-original="#22eaff" class="" style="fill: url('#gradient-0-12'); fill-opacity: 0.2;"/>
      <circle cx="4" cy="12" r="2" data-original="#22eaff" class="" style="fill: url('#gradient-0-13'); fill-opacity: 0.2;"/>
      <circle cx="4" cy="48" r="2" data-original="#22eaff" class="" style="fill: url('#gradient-0-11'); fill-opacity: 0.2;"/>
      <circle cx="30" cy="57" r="2" data-original="#22eaff" class="" style="fill: url('#gradient-0-9'); fill-opacity: 0.2;"/>
      <circle cx="12" cy="56" r="2" data-original="#22eaff" class="" style="fill: url('#gradient-0-10'); fill-opacity: 0.2;"/>
      <circle cx="48" cy="56" r="2" data-original="#22eaff" class="" style="fill: url('#gradient-0-8'); fill-opacity: 0.2;"/>
      <circle cx="57" cy="30" r="2" data-original="#22eaff" class="" style="fill: url('#gradient-0-6'); fill-opacity: 0.2;"/>
      <circle cx="56" cy="48" r="2" data-original="#22eaff" class="" style="fill: url('#gradient-0-7'); fill-opacity: 0.2;"/>
      <path d="M56 14a2 2 0 1 1-.001-3.999A2 2 0 0 1 56 14z" data-original="#22eaff" class="" style="fill: url('#gradient-0-5'); fill-opacity: 0.25;"/>
      <circle cx="30" cy="3" r="2" data-original="#22eaff" class="" style="fill: url('#gradient-0-3'); fill-opacity: 0.2;"/>
      <circle cx="48" cy="4" r="2" data-original="#22eaff" class="" style="fill: url('#gradient-0-4'); fill-opacity: 0.25;"/>
      <circle cx="12" cy="4" r="2" data-original="#22eaff" class="" style="fill: url('#gradient-0-2'); fill-opacity: 0.2;"/>
    </g>
    <rect width="34" height="34" x="13" y="13" rx="3" data-original="#dce4ea" class="" opacity="0.9686274509803922" style="fill: url('#gradient-0-0'); fill-opacity: 0.25;"/>
    <path d="M57 27a2.996 2.996 0 0 0-2.816 2H48v-4h6a1 1 0 1 0 0-2h-6v-4h7c1.103 0 2-.897 2-2v-2.184A2.996 2.996 0 0 0 59 12c0-1.654-1.346-3-3-3s-3 1.346-3 3c0 1.302.839 2.402 2 2.816V17h-7v-1c0-2.206-1.794-4-4-4h-1V5h2.184A2.996 2.996 0 0 0 48 7c1.654 0 3-1.346 3-3s-1.346-3-3-3a2.996 2.996 0 0 0-2.816 2H43c-1.103 0-2 .897-2 2v7h-4V6a1 1 0 1 0-2 0v6h-4V5.816A2.996 2.996 0 0 0 33 3c0-1.654-1.346-3-3-3s-3 1.346-3 3c0 1.302.839 2.402 2 2.816V12h-4V6a1 1 0 1 0-2 0v6h-4V5c0-1.103-.897-2-2-2h-2.184A2.996 2.996 0 0 0 12 1c-1.654 0-3 1.346-3 3s1.346 3 3 3a2.996 2.996 0 0 0 2.816-2H17v7h-1c-2.206 0-4 1.794-4 4v1H5v-2.184A2.996 2.996 0 0 0 7 12c0-1.654-1.346-3-3-3s-3 1.346-3 3c0 1.302.839 2.402 2 2.816V17c0 1.103.897 2 2 2h7a1 1 0 1 0 2 0v-3c0-1.103.897-2 2-2h28c1.103 0 2 .897 2 2v28c0 1.103-.897 2-2 2H16c-1.103 0-2-.897-2-2V23a1 1 0 1 0-2 0H6a1 1 0 1 0 0 2h6v4H5.816A2.996 2.996 0 0 0 3 27c-1.654 0-3 1.346-3 3s1.346 3 3 3a2.996 2.996 0 0 0 2.816-2H12v4H6a1 1 0 1 0 0 2h6v4H5c-1.103 0-2 .897-2 2v2.184A2.996 2.996 0 0 0 1 48c0 1.654 1.346 3 3 3s3-1.346 3-3a2.996 2.996 0 0 0-2-2.816V43h7v1c0 2.206 1.794 4 4 4h1v7h-2.184A2.996 2.996 0 0 0 12 53c-1.654 0-3 1.346-3 3s1.346 3 3 3a2.996 2.996 0 0 0 2.816-2H17c1.103 0 2-.897 2-2v-7h4v6a1 1 0 1 0 2 0v-6h4v6.184A2.996 2.996 0 0 0 27 57c0 1.654 1.346 3 3 3s3-1.346 3-3a2.996 2.996 0 0 0-2-2.816V48h4v6a1 1 0 1 0 2 0v-6h4v7c0 1.103.897 2 2 2h2.184A2.996 2.996 0 0 0 48 59c1.654 0 3-1.346 3-3s-1.346-3-3-3a2.996 2.996 0 0 0-2.816 2H43v-7h1c2.206 0 4-1.794 4-4v-1h7v2.184A2.996 2.996 0 0 0 53 48c0 1.654 1.346 3 3 3s3-1.346 3-3a2.996 2.996 0 0 0-2-2.816V43c0-1.103-.897-2-2-2h-7v-4h6a1 1 0 1 0 0-2h-6v-4h6.184A2.996 2.996 0 0 0 57 33c1.654 0 3-1.346 3-3s-1.346-3-3-3zm-1-16a1 1 0 1 1 0 2 1 1 0 0 1 0-2zm-8-8a1 1 0 1 1 0 2 1 1 0 0 1 0-2zM30 2a1 1 0 1 1 0 2 1 1 0 0 1 0-2zM12 5a1 1 0 1 1 0-2 1 1 0 0 1 0 2zm-8 6a1 1 0 1 1 0 2 1 1 0 0 1 0-2zM3 31a1 1 0 1 1 0-2 1 1 0 0 1 0 2zm1 18a1 1 0 1 1 0-2 1 1 0 0 1 0 2zm8 8a1 1 0 1 1 0-2 1 1 0 0 1 0 2zm18 1a1 1 0 1 1 0-2 1 1 0 0 1 0 2zm18-3a1 1 0 1 1 0 2 1 1 0 0 1 0-2zm8-6a1 1 0 1 1 0-2 1 1 0 0 1 0 2zm1-18a1 1 0 1 1 0-2 1 1 0 0 1 0 2z" data-original="#262626" class="" style="fill: url('#gradient-0-1');"/>
    <path d="M20.977 38.217 22.138 33h3.725l1.161 5.217a1 1 0 0 0 1.954-.433l-3.466-15.573c-.159-.712-.78-1.21-1.511-1.21s-1.352.498-1.512 1.212l-3.465 15.571a1.001 1.001 0 0 0 .76 1.193 1.005 1.005 0 0 0 1.193-.76zM24 24.628 25.418 31h-2.835l1.418-6.372zM32 37a1 1 0 1 0 0 2h6a1 1 0 1 0 0-2h-2V23h2a1 1 0 1 0 0-2h-6a1 1 0 1 0 0 2h2v14z" data-original="#262626" class="" style="fill: url('#gradient-0-14');"/>
  </g>
</svg>