<svg xmlns="http://www.w3.org/2000/svg" version="1.1" xmlns:xlink="http://www.w3.org/1999/xlink" xmlns:svgjs="http://svgjs.com/svgjs" width="512" height="512" x="0" y="0" viewBox="0 0 64 64" style="enable-background:new 0 0 512 512" xml:space="preserve" class=""><g><linearGradient id="a" x1="2.069" x2="62.074" y1="46" y2="46" gradientUnits="userSpaceOnUse"><stop stop-opacity="1" stop-color="#ffdb6e" offset="0"></stop><stop stop-opacity="1" stop-color="#ffbc5e" offset="1"></stop></linearGradient><linearGradient xlink:href="#a" id="b" x2="62.074" y1="46.182" y2="46.182"></linearGradient><linearGradient xlink:href="#a" id="c" x2="62.069" y1="25.886" y2="25.886"></linearGradient><linearGradient xlink:href="#a" id="d" x2="62.074" y1="8.236" y2="8.236"></linearGradient><linearGradient xlink:href="#a" id="e" x2="62.074" y1="27.289" y2="27.289"></linearGradient><linearGradient xlink:href="#a" id="f" x2="62.072" y1="27.289" y2="27.289"></linearGradient><path fill="url(#a)" d="M61 42.227h-2.067a13.313 13.313 0 0 0-1.122-2.702l1.463-1.463a1 1 0 0 0 0-1.415l-3.921-3.921a1 1 0 0 0-1.415 0l-1.463 1.463c-.86-.473-1.765-.849-2.702-1.122V31a1 1 0 0 0-1-1h-5.546a1 1 0 0 0-1 1v2.067c-.937.273-1.841.649-2.702 1.122l-1.463-1.463a1 1 0 0 0-1.415 0l-3.921 3.921a1 1 0 0 0 0 1.415l1.463 1.463c-.473.86-.849 1.765-1.122 2.702H31a1 1 0 0 0-1 1v5.546a1 1 0 0 0 1 1h2.067c.273.937.649 1.841 1.122 2.702l-1.463 1.463a1 1 0 0 0 0 1.415l3.921 3.921a1 1 0 0 0 1.415 0l1.463-1.463c.86.473 1.765.849 2.702 1.122V61a1 1 0 0 0 1 1h5.546a1 1 0 0 0 1-1v-2.067a13.313 13.313 0 0 0 2.702-1.122l1.463 1.463a1 1 0 0 0 1.415 0l3.921-3.921a1 1 0 0 0 0-1.415l-1.463-1.463c.473-.86.849-1.765 1.122-2.702H61a1 1 0 0 0 1-1v-5.546a1 1 0 0 0-1-1zm-1 5.546h-1.84a1 1 0 0 0-.976.778 11.382 11.382 0 0 1-1.474 3.55 1 1 0 0 0 .14 1.24l1.303 1.305-2.507 2.507-1.305-1.304a1 1 0 0 0-1.24-.139 11.382 11.382 0 0 1-3.55 1.474 1 1 0 0 0-.778.975V60h-3.546v-1.84a1 1 0 0 0-.778-.976 11.382 11.382 0 0 1-3.55-1.474 1.001 1.001 0 0 0-1.24.14l-1.305 1.303-2.507-2.507 1.304-1.305a1 1 0 0 0 .139-1.24 11.382 11.382 0 0 1-1.474-3.55 1 1 0 0 0-.975-.778H32v-3.546h1.84a1 1 0 0 0 .976-.778c.285-1.256.781-2.45 1.474-3.55a1 1 0 0 0-.14-1.24l-1.303-1.305 2.507-2.507 1.305 1.304a1 1 0 0 0 1.24.139 11.382 11.382 0 0 1 3.55-1.474 1 1 0 0 0 .778-.975V32h3.546v1.84a1 1 0 0 0 .778.976c1.256.285 2.45.781 3.55 1.474.396.25.91.191 1.24-.14l1.305-1.303 2.507 2.507-1.304 1.305a1 1 0 0 0-.139 1.24 11.382 11.382 0 0 1 1.474 3.55 1 1 0 0 0 .975.778H60z" data-original="url(#a)" class=""></path><path fill="url(#b)" d="M46 38.182c-4.411 0-8 3.589-8 8s3.589 8 8 8 8-3.59 8-8-3.589-8-8-8zm0 14c-3.309 0-6-2.692-6-6s2.691-6 6-6 6 2.691 6 6-2.691 6-6 6z" data-original="url(#b)"></path><path fill="url(#c)" d="M59 2H5C3.346 2 2 3.346 2 5v41.773c0 1.654 1.346 3 3 3h22a1 1 0 0 0 0-2H5c-.551 0-1-.449-1-1V14.472h9.772a1 1 0 0 0 0-2H4V5c0-.551.449-1 1-1h54c.551 0 1 .449 1 1v7.472H18.361a1 1 0 0 0 0 2H60V34.13a1 1 0 0 0 2 0V5c0-1.654-1.346-3-3-3z" data-original="url(#c)" class=""></path><g fill="url(#d)"><path d="M8.07 7.236a1 1 0 0 0 0 2h1.544a1 1 0 0 0 0-2zM13.95 7.236a1 1 0 0 0 0 2h1.545a1 1 0 0 0 0-2zM21.376 9.236a1 1 0 0 0 0-2h-1.544a1 1 0 0 0 0 2z" fill=""></path></g><path fill="url(#e)" d="M14.652 19.898a1 1 0 0 0-1.414 0l-6.683 6.684a1 1 0 0 0 0 1.414l6.683 6.683a.997.997 0 0 0 1.414 0 1 1 0 0 0 0-1.414l-5.976-5.976 5.976-5.976a1 1 0 0 0 0-1.415zM26.555 34.679a.997.997 0 0 0 1.414 0l6.683-6.683a1 1 0 0 0 0-1.414l-6.683-6.684a1 1 0 1 0-1.414 1.414l5.976 5.977-5.976 5.976a1 1 0 0 0 0 1.414z" data-original="url(#e)" class=""></path><path fill="url(#f)" d="m21.128 20.386-3 13.366a1 1 0 1 0 1.952.439l3-13.366a1 1 0 1 0-1.952-.439z" data-original="url(#f)"></path></g></svg>