<?xml version="1.0" encoding="utf-8"?>
<svg viewBox="0 0 500 500" xmlns="http://www.w3.org/2000/svg" xmlns:xlink="http://www.w3.org/1999/xlink" xmlns:bx="https://boxy-svg.com">
  <defs>
    <linearGradient id="gradient-0-1" gradientUnits="userSpaceOnUse" x1="28.6" y1="39.2" x2="28.6" y2="45.4" gradientTransform="matrix(0.74658, -0.612018, 0.696483, 0.718988, -22.4028, 29.285978)" xlink:href="#gradient-0"/>
    <linearGradient id="gradient-0" bx:pinned="true">
      <stop offset="0.142" style="stop-color: rgb(255, 219, 110);"/>
      <stop offset="0.872" style="stop-color: rgb(255, 188, 94);"/>
    </linearGradient>
    <linearGradient id="gradient-0-0" gradientUnits="userSpaceOnUse" x1="-2.501" y1="0.452" x2="-2.501" y2="53.452" gradientTransform="matrix(0.624877, -0.718201, 1.120643, 0.825115, -1.391015, 1.890928)" xlink:href="#gradient-0"/>
    <linearGradient id="gradient-0-2" gradientUnits="userSpaceOnUse" x1="413.314" y1="18.934" x2="413.314" y2="337.869" gradientTransform="matrix(0.624695, -0.780869, 1.280148, 1.024119, -277.403586, 314.595002)" xlink:href="#gradient-0"/>
    <linearGradient id="gradient-0-3" gradientUnits="userSpaceOnUse" x1="217.231" y1="339.251" x2="217.231" y2="394.28" gradientTransform="matrix(0.538031, -0.842925, 1.516145, 0.967741, -450.094586, 195.236513)" xlink:href="#gradient-0"/>
    <linearGradient id="gradient-0-4" gradientUnits="userSpaceOnUse" x1="216.963" y1="396.647" x2="216.963" y2="444.576" gradientTransform="matrix(0.256677, -0.966498, 3.765433, 1, -1423.398083, 209.694204)" xlink:href="#gradient-0"/>
  </defs>
  <g transform="matrix(7.810630798339845, 0, 0, 8.49056625366211, -7.810618877410889, -55.18869400024414)">
    <path d="M28.6 39.2c-1.7 0-3.1 1.4-3.1 3.1s1.4 3.1 3.1 3.1 3.1-1.4 3.1-3.1c-.1-1.7-1.4-3.1-3.1-3.1zm0 4.1c-.6 0-1.1-.5-1.1-1.1s.5-1.1 1.1-1.1 1.1.5 1.1 1.1c-.1.6-.6 1.1-1.1 1.1z" data-original="#000000" class="" style="fill: url('#gradient-0-1');"/>
    <path d="M64.6 9.6c0-.6-.5-1-1.1-.9l-5.3.3c-.6 0-1 .5-.9 1.1 0 .6.5 1 1.1.9l3-.2-5.2 6v-6.7c0-2-1.6-3.6-3.6-3.6h-48c-2 0-3.6 1.6-3.6 3.6V44c0 2 1.6 3.6 3.6 3.6h18.1l-1 4.7h-4.8c-.6 0-1 .4-1 1v5.2c0 .6.4 1 1 1h23.3c.6 0 1-.4 1-1v-5.2c0-.6-.4-1-1-1h-4.8l-1-4.7h18.1c2 0 3.6-1.6 3.6-3.6V19.9l6.7-7.7.2 3c0 .6.5 1 1.1.9.6 0 1-.5.9-1.1zm-60-1.1h47.9c.9 0 1.6.7 1.6 1.6v9l-7.5 8.6c-.5-.2-1-.3-1.5-.3-.6 0-1.2.2-1.7.5l-7.9-7.6c.3-.5.4-1 .4-1.6 0-2-1.6-3.6-3.6-3.6s-3.6 1.6-3.6 3.6c0 .8.3 1.6.8 2.2l-4.8 6.8c-.4-.1-.8-.2-1.2-.2-.7 0-1.4.2-2 .6l-6.2-5.3c.2-.4.3-.9.3-1.5 0-2-1.6-3.6-3.6-3.6s-3.6 1.6-3.6 3.6c0 .6.2 1.2.4 1.6l-6 5.8V10.1c.2-.9.9-1.6 1.8-1.6zm40.6 20.9c.9 0 1.6.7 1.6 1.6s-.7 1.6-1.6 1.6-1.6-.7-1.6-1.6.7-1.6 1.6-1.6zM30.8 18.6c0-.9.7-1.6 1.6-1.6s1.6.7 1.6 1.6-.7 1.6-1.6 1.6-1.6-.7-1.6-1.6zm-7.2 10.8c.9 0 1.6.7 1.6 1.6s-.7 1.6-1.6 1.6S22 31.9 22 31s.7-1.6 1.6-1.6zm-13-8.2c0-.9.7-1.6 1.6-1.6s1.6.7 1.6 1.6-.7 1.6-1.6 1.6-1.6-.7-1.6-1.6zm28.6 36.3H17.9v-3.2h21.3zm-5.8-5.2h-9.6l1-4.7h7.6zm19.1-6.7H4.6c-.9 0-1.6-.7-1.6-1.6v-5.1h51.1V44c0 .9-.7 1.6-1.6 1.6zm1.6-8.7H3v-5.5l7.4-7.1c.5.3 1.1.5 1.8.5s1.4-.2 2-.6l6.2 5.3c-.2.5-.4 1-.4 1.5 0 2 1.6 3.6 3.6 3.6s3.6-1.6 3.6-3.6c0-.8-.3-1.6-.8-2.2l4.8-6.8c.4.1.8.2 1.2.2.6 0 1.2-.2 1.8-.5l7.9 7.6c-.3.5-.4 1.1-.4 1.7 0 2 1.6 3.6 3.6 3.6s3.6-1.6 3.6-3.6c0-.7-.2-1.3-.6-1.9l6-6.9v14.7z" data-original="#000000" class="" style="fill: url('#gradient-0-0'); fill-rule: nonzero;"/>
  </g>
  <rect x="12.426" y="13.609" width="404.142" height="318.935" style="stroke: rgb(0, 0, 0); fill: url('#gradient-0-2'); fill-opacity: 0.25; stroke-opacity: 0;" transform="matrix(1, 0, 0, 1, 0, 3.552713678800501e-15)"/>
  <path style="stroke: rgb(0, 0, 0); stroke-opacity: 0; fill: url('#gradient-0-3'); fill-opacity: 0.25;" d="M 251.282 341.617 C 235.108 341.617 218.935 341.617 202.761 341.617 C 197.633 341.617 192.505 341.617 187.377 341.617 C 185.002 341.617 180.276 338.651 180.276 341.026 C 180.276 348.059 180.113 362.491 176.134 366.469 C 173.946 368.657 175.337 376.734 173.176 378.895 C 170.748 381.323 171.625 386.138 170.217 388.955 C 169.469 390.451 168.099 394.28 168.442 394.28 C 189.475 394.28 211.487 393.688 232.939 393.688 C 240.237 393.688 247.535 393.688 254.832 393.688 C 257.396 393.688 259.961 393.688 262.525 393.688 C 263.708 393.688 266.075 394.872 266.075 393.688 C 266.075 388.817 258.248 380.992 256.016 376.529 C 250.43 365.356 249.507 352.56 249.507 339.251" transform="matrix(1, 0, 0, 1, 0, 3.552713678800501e-15)"/>
  <rect x="126.43" y="396.647" width="181.065" height="47.929" style="stroke: rgb(0, 0, 0); stroke-opacity: 0; fill: url('#gradient-0-4'); fill-opacity: 0.25;" transform="matrix(1, 0, 0, 1, 0, 3.552713678800501e-15)"/>
</svg>