<svg xmlns="http://www.w3.org/2000/svg" version="1.1" xmlns:xlink="http://www.w3.org/1999/xlink" xmlns:svgjs="http://svgjs.com/svgjs" width="512" height="512" x="0" y="0" viewBox="0 0 24 24" style="enable-background:new 0 0 512 512" xml:space="preserve" class=""><g><path fill="#bad7ff" d="m19.349 6.273-6-3.375a2.76 2.76 0 0 0-2.697 0L4.653 6.272a2.75 2.75 0 0 0-1.402 2.397v6.66c0 .992.537 1.91 1.401 2.396l6 3.375a2.755 2.755 0 0 0 2.698 0l6-3.375a2.752 2.752 0 0 0 1.401-2.396v-6.66c0-.993-.537-1.912-1.401-2.396z" data-original="#bad7ff" class=""></path><g fill="#549bff"><path d="M12 11.25a.75.75 0 0 0-.75.75v9.342c.245.069.497.111.75.111s.505-.042.75-.111V12a.75.75 0 0 0-.75-.75z" fill="#549bff" data-original="#549bff" class=""></path><path d="M20.404 7.333a2.73 2.73 0 0 0-1.056-1.057l-6.003-3.382a2.752 2.752 0 0 0-2.694.002L4.658 6.272a2.722 2.722 0 0 0-1.062 1.061.747.747 0 0 0-.067.572.76.76 0 0 0 .357.451l7.75 4.3a.76.76 0 0 0 .728 0l7.75-4.3a.755.755 0 0 0 .29-1.023z" fill="#549bff" data-original="#549bff" class=""></path></g></g></svg>